<?xml version="1.0" standalone="no"?><svg xmlns="http://www.w3.org/2000/svg" viewBox="0 0 1440 320"><path fill="#AFB9E9" fill-opacity="1" d="M0,256L6.2,218.7C12.3,181,25,107,37,74.7C49.2,43,62,53,74,96C86.2,139,98,213,111,213.3C123.1,213,135,139,148,112C160,85,172,107,185,138.7C196.9,171,209,213,222,197.3C233.8,181,246,107,258,101.3C270.8,96,283,160,295,202.7C307.7,245,320,267,332,272C344.6,277,357,267,369,229.3C381.5,192,394,128,406,101.3C418.5,75,431,85,443,112C455.4,139,468,181,480,208C492.3,235,505,245,517,224C529.2,203,542,149,554,122.7C566.2,96,578,96,591,101.3C603.1,107,615,117,628,138.7C640,160,652,192,665,192C676.9,192,689,160,702,122.7C713.8,85,726,43,738,42.7C750.8,43,763,85,775,112C787.7,139,800,149,812,133.3C824.6,117,837,75,849,58.7C861.5,43,874,53,886,58.7C898.5,64,911,64,923,85.3C935.4,107,948,149,960,144C972.3,139,985,85,997,80C1009.2,75,1022,117,1034,138.7C1046.2,160,1058,160,1071,170.7C1083.1,181,1095,203,1108,218.7C1120,235,1132,245,1145,213.3C1156.9,181,1169,107,1182,85.3C1193.8,64,1206,96,1218,112C1230.8,128,1243,128,1255,144C1267.7,160,1280,192,1292,218.7C1304.6,245,1317,267,1329,277.3C1341.5,288,1354,288,1366,282.7C1378.5,277,1391,267,1403,229.3C1415.4,192,1428,128,1434,96L1440,64L1440,0L1433.8,0C1427.7,0,1415,0,1403,0C1390.8,0,1378,0,1366,0C1353.8,0,1342,0,1329,0C1316.9,0,1305,0,1292,0C1280,0,1268,0,1255,0C1243.1,0,1231,0,1218,0C1206.2,0,1194,0,1182,0C1169.2,0,1157,0,1145,0C1132.3,0,1120,0,1108,0C1095.4,0,1083,0,1071,0C1058.5,0,1046,0,1034,0C1021.5,0,1009,0,997,0C984.6,0,972,0,960,0C947.7,0,935,0,923,0C910.8,0,898,0,886,0C873.8,0,862,0,849,0C836.9,0,825,0,812,0C800,0,788,0,775,0C763.1,0,751,0,738,0C726.2,0,714,0,702,0C689.2,0,677,0,665,0C652.3,0,640,0,628,0C615.4,0,603,0,591,0C578.5,0,566,0,554,0C541.5,0,529,0,517,0C504.6,0,492,0,480,0C467.7,0,455,0,443,0C430.8,0,418,0,406,0C393.8,0,382,0,369,0C356.9,0,345,0,332,0C320,0,308,0,295,0C283.1,0,271,0,258,0C246.2,0,234,0,222,0C209.2,0,197,0,185,0C172.3,0,160,0,148,0C135.4,0,123,0,111,0C98.5,0,86,0,74,0C61.5,0,49,0,37,0C24.6,0,12,0,6,0L0,0Z"></path></svg>